<?xml version="1.0" encoding="utf-8" standalone="no"?>
<!DOCTYPE svg PUBLIC "-//W3C//DTD SVG 1.1//EN"
  "http://www.w3.org/Graphics/SVG/1.1/DTD/svg11.dtd">
<svg xmlns:xlink="http://www.w3.org/1999/xlink" width="258pt" height="40pt" viewBox="0 0 258 40" xmlns="http://www.w3.org/2000/svg" version="1.1">
 <metadata>
  <rdf:RDF xmlns:dc="http://purl.org/dc/elements/1.1/" xmlns:cc="http://creativecommons.org/ns#" xmlns:rdf="http://www.w3.org/1999/02/22-rdf-syntax-ns#">
   <cc:Work>
    <dc:type rdf:resource="http://purl.org/dc/dcmitype/StillImage"/>
    <dc:date>2026-03-18T11:54:57.736243</dc:date>
    <dc:format>image/svg+xml</dc:format>
    <dc:creator>
     <cc:Agent>
      <dc:title>Matplotlib v3.10.8, https://matplotlib.org/</dc:title>
     </cc:Agent>
    </dc:creator>
   </cc:Work>
  </rdf:RDF>
 </metadata>
 <defs>
  <style type="text/css">*{stroke-linejoin: round; stroke-linecap: butt}</style>
 </defs>
 <g id="figure_1">
  <g id="patch_1">
   <path d="M 0 40 
L 258 40 
L 258 0 
L 0 0 
z
" style="fill: #ffffff"/>
  </g>
  <g id="text_1">
   <!-- $P_m^{(3)} = \sum_{j \neq d,m} \sum_{k \neq d,m,j} |K_{j d}K_{k j}K_{m k}|.$ -->
   <g transform="translate(0 19) scale(0.18 -0.18)">
    <defs>
     <path id="DejaVuSans-Oblique-50" d="M 1081 4666 
L 2541 4666 
Q 3178 4666 3512 4369 
Q 3847 4072 3847 3500 
Q 3847 2731 3353 2303 
Q 2859 1875 1966 1875 
L 1172 1875 
L 806 0 
L 172 0 
L 1081 4666 
z
M 1613 4147 
L 1275 2394 
L 2069 2394 
Q 2606 2394 2893 2669 
Q 3181 2944 3181 3456 
Q 3181 3784 2986 3965 
Q 2791 4147 2438 4147 
L 1613 4147 
z
" transform="scale(0.015625)"/>
     <path id="DejaVuSans-28" d="M 1984 4856 
Q 1566 4138 1362 3434 
Q 1159 2731 1159 2009 
Q 1159 1288 1364 580 
Q 1569 -128 1984 -844 
L 1484 -844 
Q 1016 -109 783 600 
Q 550 1309 550 2009 
Q 550 2706 781 3412 
Q 1013 4119 1484 4856 
L 1984 4856 
z
" transform="scale(0.015625)"/>
     <path id="DejaVuSans-33" d="M 2597 2516 
Q 3050 2419 3304 2112 
Q 3559 1806 3559 1356 
Q 3559 666 3084 287 
Q 2609 -91 1734 -91 
Q 1441 -91 1130 -33 
Q 819 25 488 141 
L 488 750 
Q 750 597 1062 519 
Q 1375 441 1716 441 
Q 2309 441 2620 675 
Q 2931 909 2931 1356 
Q 2931 1769 2642 2001 
Q 2353 2234 1838 2234 
L 1294 2234 
L 1294 2753 
L 1863 2753 
Q 2328 2753 2575 2939 
Q 2822 3125 2822 3475 
Q 2822 3834 2567 4026 
Q 2313 4219 1838 4219 
Q 1578 4219 1281 4162 
Q 984 4106 628 3988 
L 628 4550 
Q 988 4650 1302 4700 
Q 1616 4750 1894 4750 
Q 2613 4750 3031 4423 
Q 3450 4097 3450 3541 
Q 3450 3153 3228 2886 
Q 3006 2619 2597 2516 
z
" transform="scale(0.015625)"/>
     <path id="DejaVuSans-29" d="M 513 4856 
L 1013 4856 
Q 1481 4119 1714 3412 
Q 1947 2706 1947 2009 
Q 1947 1309 1714 600 
Q 1481 -109 1013 -844 
L 513 -844 
Q 928 -128 1133 580 
Q 1338 1288 1338 2009 
Q 1338 2731 1133 3434 
Q 928 4138 513 4856 
z
" transform="scale(0.015625)"/>
     <path id="DejaVuSans-Oblique-6d" d="M 5747 2113 
L 5338 0 
L 4763 0 
L 5166 2094 
Q 5191 2228 5203 2325 
Q 5216 2422 5216 2491 
Q 5216 2772 5059 2928 
Q 4903 3084 4622 3084 
Q 4203 3084 3875 2770 
Q 3547 2456 3450 1953 
L 3066 0 
L 2491 0 
L 2900 2094 
Q 2925 2209 2937 2307 
Q 2950 2406 2950 2484 
Q 2950 2769 2794 2926 
Q 2638 3084 2363 3084 
Q 1938 3084 1609 2770 
Q 1281 2456 1184 1953 
L 800 0 
L 225 0 
L 909 3500 
L 1484 3500 
L 1375 2956 
Q 1609 3263 1923 3423 
Q 2238 3584 2597 3584 
Q 2978 3584 3223 3384 
Q 3469 3184 3519 2828 
Q 3781 3197 4126 3390 
Q 4472 3584 4856 3584 
Q 5306 3584 5551 3325 
Q 5797 3066 5797 2591 
Q 5797 2488 5784 2364 
Q 5772 2241 5747 2113 
z
" transform="scale(0.015625)"/>
     <path id="DejaVuSans-3d" d="M 678 2906 
L 4684 2906 
L 4684 2381 
L 678 2381 
L 678 2906 
z
M 678 1631 
L 4684 1631 
L 4684 1100 
L 678 1100 
L 678 1631 
z
" transform="scale(0.015625)"/>
     <path id="DejaVuSansDisplay-2211" d="M 244 6509 
L 5803 6509 
L 5803 5656 
L 1566 5656 
L 4534 2488 
L 1469 -888 
L 5919 -888 
L 5919 -1738 
L 109 -1738 
L 109 -1078 
L 3316 2463 
L 244 5728 
L 244 6509 
z
" transform="scale(0.015625)"/>
     <path id="DejaVuSans-Oblique-6a" d="M 928 3500 
L 1503 3500 
L 813 -63 
L 809 -78 
Q 694 -675 544 -897 
Q 403 -1106 132 -1218 
Q -138 -1331 -506 -1331 
L -722 -1331 
L -628 -844 
L -481 -844 
Q -144 -844 -1 -703 
Q 141 -563 238 -63 
L 928 3500 
z
M 1197 4863 
L 1772 4863 
L 1631 4134 
L 1056 4134 
L 1197 4863 
z
" transform="scale(0.015625)"/>
     <path id="DejaVuSans-2260" d="M 678 2906 
L 3091 2906 
L 3891 3891 
L 4281 3572 
L 3738 2906 
L 4684 2906 
L 4684 2381 
L 3309 2381 
L 2700 1631 
L 4684 1631 
L 4684 1100 
L 2266 1100 
L 1459 122 
L 1069 441 
L 1613 1100 
L 678 1100 
L 678 1631 
L 2047 1631 
L 2656 2381 
L 678 2381 
L 678 2906 
z
" transform="scale(0.015625)"/>
     <path id="DejaVuSans-Oblique-64" d="M 2675 525 
Q 2444 222 2128 65 
Q 1813 -91 1428 -91 
Q 903 -91 598 267 
Q 294 625 294 1247 
Q 294 1766 478 2236 
Q 663 2706 1013 3078 
Q 1244 3325 1534 3454 
Q 1825 3584 2144 3584 
Q 2481 3584 2739 3421 
Q 2997 3259 3138 2956 
L 3513 4863 
L 4091 4863 
L 3144 0 
L 2566 0 
L 2675 525 
z
M 891 1350 
Q 891 897 1095 644 
Q 1300 391 1663 391 
Q 1931 391 2161 520 
Q 2391 650 2566 903 
Q 2750 1166 2856 1509 
Q 2963 1853 2963 2188 
Q 2963 2622 2758 2865 
Q 2553 3109 2194 3109 
Q 1922 3109 1687 2981 
Q 1453 2853 1288 2613 
Q 1106 2353 998 2009 
Q 891 1666 891 1350 
z
" transform="scale(0.015625)"/>
     <path id="DejaVuSans-2c" d="M 750 794 
L 1409 794 
L 1409 256 
L 897 -744 
L 494 -744 
L 750 256 
L 750 794 
z
" transform="scale(0.015625)"/>
     <path id="DejaVuSans-Oblique-6b" d="M 1172 4863 
L 1747 4863 
L 1197 2028 
L 3169 3500 
L 3916 3500 
L 1716 1825 
L 3322 0 
L 2625 0 
L 1131 1709 
L 800 0 
L 225 0 
L 1172 4863 
z
" transform="scale(0.015625)"/>
     <path id="DejaVuSans-7c" d="M 1344 4891 
L 1344 -1509 
L 813 -1509 
L 813 4891 
L 1344 4891 
z
" transform="scale(0.015625)"/>
     <path id="DejaVuSans-Oblique-4b" d="M 1081 4666 
L 1716 4666 
L 1331 2700 
L 3781 4666 
L 4622 4666 
L 1850 2438 
L 3878 0 
L 3109 0 
L 1247 2272 
L 806 0 
L 172 0 
L 1081 4666 
z
" transform="scale(0.015625)"/>
     <path id="DejaVuSans-2e" d="M 684 794 
L 1344 794 
L 1344 0 
L 684 0 
L 684 794 
z
" transform="scale(0.015625)"/>
    </defs>
    <use xlink:href="#DejaVuSans-Oblique-50" transform="translate(0 0.296875)"/>
    <use xlink:href="#DejaVuSans-28" transform="translate(67.319505 38.578125) scale(0.7)"/>
    <use xlink:href="#DejaVuSans-33" transform="translate(94.629076 38.578125) scale(0.7)"/>
    <use xlink:href="#DejaVuSans-29" transform="translate(139.165208 38.578125) scale(0.7)"/>
    <use xlink:href="#DejaVuSans-Oblique-6d" transform="translate(60.302734 -27.046875) scale(0.7)"/>
    <use xlink:href="#DejaVuSans-3d" transform="translate(188.691576 0.296875)"/>
    <use xlink:href="#DejaVuSansDisplay-2211" transform="translate(373.96306 0.296875)"/>
    <use xlink:href="#DejaVuSans-Oblique-6a" transform="translate(291.96306 -98.798438) scale(0.7)"/>
    <use xlink:href="#DejaVuSans-2260" transform="translate(325.048997 -98.798438) scale(0.7)"/>
    <use xlink:href="#DejaVuSans-Oblique-64" transform="translate(397.339036 -98.798438) scale(0.7)"/>
    <use xlink:href="#DejaVuSans-2c" transform="translate(441.77263 -98.798438) scale(0.7)"/>
    <use xlink:href="#DejaVuSans-Oblique-6d" transform="translate(477.661302 -98.798438) scale(0.7)"/>
    <use xlink:href="#DejaVuSansDisplay-2211" transform="translate(665.849779 0.296875)"/>
    <use xlink:href="#DejaVuSans-Oblique-6b" transform="translate(545.849779 -98.798438) scale(0.7)"/>
    <use xlink:href="#DejaVuSans-2260" transform="translate(600.024583 -98.798438) scale(0.7)"/>
    <use xlink:href="#DejaVuSans-Oblique-64" transform="translate(672.314622 -98.798438) scale(0.7)"/>
    <use xlink:href="#DejaVuSans-2c" transform="translate(716.748216 -98.798438) scale(0.7)"/>
    <use xlink:href="#DejaVuSans-Oblique-6d" transform="translate(752.636888 -98.798438) scale(0.7)"/>
    <use xlink:href="#DejaVuSans-2c" transform="translate(820.825365 -98.798438) scale(0.7)"/>
    <use xlink:href="#DejaVuSans-Oblique-6a" transform="translate(856.714036 -98.798438) scale(0.7)"/>
    <use xlink:href="#DejaVuSans-7c" transform="translate(876.162279 0.296875)"/>
    <use xlink:href="#DejaVuSans-Oblique-4b" transform="translate(909.853685 0.296875)"/>
    <use xlink:href="#DejaVuSans-Oblique-6a" transform="translate(975.429857 -16.109375) scale(0.7)"/>
    <use xlink:href="#DejaVuSans-Oblique-64" transform="translate(994.878099 -16.109375) scale(0.7)"/>
    <use xlink:href="#DejaVuSans-Oblique-4b" transform="translate(1042.046068 0.296875)"/>
    <use xlink:href="#DejaVuSans-Oblique-6b" transform="translate(1107.62224 -16.109375) scale(0.7)"/>
    <use xlink:href="#DejaVuSans-Oblique-6a" transform="translate(1148.159349 -16.109375) scale(0.7)"/>
    <use xlink:href="#DejaVuSans-Oblique-4b" transform="translate(1170.341966 0.296875)"/>
    <use xlink:href="#DejaVuSans-Oblique-6d" transform="translate(1235.918138 -16.109375) scale(0.7)"/>
    <use xlink:href="#DejaVuSans-Oblique-6b" transform="translate(1304.106615 -16.109375) scale(0.7)"/>
    <use xlink:href="#DejaVuSans-7c" transform="translate(1347.378099 0.296875)"/>
    <use xlink:href="#DejaVuSans-2e" transform="translate(1381.069505 0.296875)"/>
   </g>
  </g>
 </g>
</svg>
