<?xml version="1.0" encoding="utf-8" standalone="no"?>
<!DOCTYPE svg PUBLIC "-//W3C//DTD SVG 1.1//EN"
  "http://www.w3.org/Graphics/SVG/1.1/DTD/svg11.dtd">
<svg xmlns:xlink="http://www.w3.org/1999/xlink" width="108pt" height="34pt" viewBox="0 0 108 34" xmlns="http://www.w3.org/2000/svg" version="1.1">
 <metadata>
  <rdf:RDF xmlns:dc="http://purl.org/dc/elements/1.1/" xmlns:cc="http://creativecommons.org/ns#" xmlns:rdf="http://www.w3.org/1999/02/22-rdf-syntax-ns#">
   <cc:Work>
    <dc:type rdf:resource="http://purl.org/dc/dcmitype/StillImage"/>
    <dc:date>2026-03-18T11:54:57.525283</dc:date>
    <dc:format>image/svg+xml</dc:format>
    <dc:creator>
     <cc:Agent>
      <dc:title>Matplotlib v3.10.8, https://matplotlib.org/</dc:title>
     </cc:Agent>
    </dc:creator>
   </cc:Work>
  </rdf:RDF>
 </metadata>
 <defs>
  <style type="text/css">*{stroke-linejoin: round; stroke-linecap: butt}</style>
 </defs>
 <g id="figure_1">
  <g id="patch_1">
   <path d="M 0 34 
L 108 34 
L 108 0 
L 0 0 
z
" style="fill: #ffffff"/>
  </g>
  <g id="text_1">
   <!-- $\frac{\#\{K_{ij}&lt;0,\; i\neq j\}}{\#\{K_{ij}\neq 0,\; i\neq j\}}.$ -->
   <g transform="translate(0 22) scale(0.18 -0.18)">
    <defs>
     <path id="DejaVuSans-23" d="M 3272 2816 
L 2363 2816 
L 2100 1772 
L 3016 1772 
L 3272 2816 
z
M 2803 4594 
L 2478 3297 
L 3391 3297 
L 3719 4594 
L 4219 4594 
L 3897 3297 
L 4872 3297 
L 4872 2816 
L 3775 2816 
L 3519 1772 
L 4513 1772 
L 4513 1294 
L 3397 1294 
L 3072 0 
L 2572 0 
L 2894 1294 
L 1978 1294 
L 1656 0 
L 1153 0 
L 1478 1294 
L 494 1294 
L 494 1772 
L 1594 1772 
L 1856 2816 
L 850 2816 
L 850 3297 
L 1978 3297 
L 2297 4594 
L 2803 4594 
z
" transform="scale(0.015625)"/>
     <path id="DejaVuSans-7b" d="M 3272 -594 
L 3272 -1044 
L 3078 -1044 
Q 2300 -1044 2036 -812 
Q 1772 -581 1772 109 
L 1772 856 
Q 1772 1328 1603 1509 
Q 1434 1691 991 1691 
L 800 1691 
L 800 2138 
L 991 2138 
Q 1438 2138 1605 2317 
Q 1772 2497 1772 2963 
L 1772 3713 
Q 1772 4403 2036 4633 
Q 2300 4863 3078 4863 
L 3272 4863 
L 3272 4416 
L 3059 4416 
Q 2619 4416 2484 4278 
Q 2350 4141 2350 3700 
L 2350 2925 
Q 2350 2434 2208 2212 
Q 2066 1991 1722 1913 
Q 2069 1828 2209 1606 
Q 2350 1384 2350 897 
L 2350 122 
Q 2350 -319 2484 -456 
Q 2619 -594 3059 -594 
L 3272 -594 
z
" transform="scale(0.015625)"/>
     <path id="DejaVuSans-Oblique-4b" d="M 1081 4666 
L 1716 4666 
L 1331 2700 
L 3781 4666 
L 4622 4666 
L 1850 2438 
L 3878 0 
L 3109 0 
L 1247 2272 
L 806 0 
L 172 0 
L 1081 4666 
z
" transform="scale(0.015625)"/>
     <path id="DejaVuSans-Oblique-69" d="M 1172 4863 
L 1747 4863 
L 1606 4134 
L 1031 4134 
L 1172 4863 
z
M 909 3500 
L 1484 3500 
L 800 0 
L 225 0 
L 909 3500 
z
" transform="scale(0.015625)"/>
     <path id="DejaVuSans-Oblique-6a" d="M 928 3500 
L 1503 3500 
L 813 -63 
L 809 -78 
Q 694 -675 544 -897 
Q 403 -1106 132 -1218 
Q -138 -1331 -506 -1331 
L -722 -1331 
L -628 -844 
L -481 -844 
Q -144 -844 -1 -703 
Q 141 -563 238 -63 
L 928 3500 
z
M 1197 4863 
L 1772 4863 
L 1631 4134 
L 1056 4134 
L 1197 4863 
z
" transform="scale(0.015625)"/>
     <path id="DejaVuSans-3c" d="M 4684 3150 
L 1459 2003 
L 4684 863 
L 4684 294 
L 678 1747 
L 678 2266 
L 4684 3719 
L 4684 3150 
z
" transform="scale(0.015625)"/>
     <path id="DejaVuSans-30" d="M 2034 4250 
Q 1547 4250 1301 3770 
Q 1056 3291 1056 2328 
Q 1056 1369 1301 889 
Q 1547 409 2034 409 
Q 2525 409 2770 889 
Q 3016 1369 3016 2328 
Q 3016 3291 2770 3770 
Q 2525 4250 2034 4250 
z
M 2034 4750 
Q 2819 4750 3233 4129 
Q 3647 3509 3647 2328 
Q 3647 1150 3233 529 
Q 2819 -91 2034 -91 
Q 1250 -91 836 529 
Q 422 1150 422 2328 
Q 422 3509 836 4129 
Q 1250 4750 2034 4750 
z
" transform="scale(0.015625)"/>
     <path id="DejaVuSans-2c" d="M 750 794 
L 1409 794 
L 1409 256 
L 897 -744 
L 494 -744 
L 750 256 
L 750 794 
z
" transform="scale(0.015625)"/>
     <path id="DejaVuSans-2260" d="M 678 2906 
L 3091 2906 
L 3891 3891 
L 4281 3572 
L 3738 2906 
L 4684 2906 
L 4684 2381 
L 3309 2381 
L 2700 1631 
L 4684 1631 
L 4684 1100 
L 2266 1100 
L 1459 122 
L 1069 441 
L 1613 1100 
L 678 1100 
L 678 1631 
L 2047 1631 
L 2656 2381 
L 678 2381 
L 678 2906 
z
" transform="scale(0.015625)"/>
     <path id="DejaVuSans-7d" d="M 800 -594 
L 1019 -594 
Q 1456 -594 1589 -459 
Q 1722 -325 1722 122 
L 1722 897 
Q 1722 1384 1862 1606 
Q 2003 1828 2350 1913 
Q 2003 1991 1862 2212 
Q 1722 2434 1722 2925 
L 1722 3700 
Q 1722 4144 1589 4280 
Q 1456 4416 1019 4416 
L 800 4416 
L 800 4863 
L 997 4863 
Q 1775 4863 2036 4633 
Q 2297 4403 2297 3713 
L 2297 2963 
Q 2297 2497 2465 2317 
Q 2634 2138 3078 2138 
L 3272 2138 
L 3272 1691 
L 3078 1691 
Q 2634 1691 2465 1509 
Q 2297 1328 2297 856 
L 2297 109 
Q 2297 -581 2036 -812 
Q 1775 -1044 997 -1044 
L 800 -1044 
L 800 -594 
z
" transform="scale(0.015625)"/>
     <path id="DejaVuSans-2e" d="M 684 794 
L 1344 794 
L 1344 0 
L 684 0 
L 684 794 
z
" transform="scale(0.015625)"/>
    </defs>
    <use xlink:href="#DejaVuSans-23" transform="translate(0 65.810937) scale(0.7)"/>
    <use xlink:href="#DejaVuSans-7b" transform="translate(58.652344 65.810937) scale(0.7)"/>
    <use xlink:href="#DejaVuSans-Oblique-4b" transform="translate(103.188477 65.810937) scale(0.7)"/>
    <use xlink:href="#DejaVuSans-Oblique-69" transform="translate(149.091797 54.326562) scale(0.49)"/>
    <use xlink:href="#DejaVuSans-Oblique-6a" transform="translate(162.705566 54.326562) scale(0.49)"/>
    <use xlink:href="#DejaVuSans-3c" transform="translate(191.871094 65.810937) scale(0.7)"/>
    <use xlink:href="#DejaVuSans-30" transform="translate(264.161133 65.810937) scale(0.7)"/>
    <use xlink:href="#DejaVuSans-2c" transform="translate(308.697266 65.810937) scale(0.7)"/>
    <use xlink:href="#DejaVuSans-Oblique-69" transform="translate(363.527333 65.810937) scale(0.7)"/>
    <use xlink:href="#DejaVuSans-2260" transform="translate(396.61327 65.810937) scale(0.7)"/>
    <use xlink:href="#DejaVuSans-Oblique-6a" transform="translate(468.903309 65.810937) scale(0.7)"/>
    <use xlink:href="#DejaVuSans-7d" transform="translate(488.351551 65.810937) scale(0.7)"/>
    <use xlink:href="#DejaVuSans-23" transform="translate(0 -40.302969) scale(0.7)"/>
    <use xlink:href="#DejaVuSans-7b" transform="translate(58.652344 -40.302969) scale(0.7)"/>
    <use xlink:href="#DejaVuSans-Oblique-4b" transform="translate(103.188477 -40.302969) scale(0.7)"/>
    <use xlink:href="#DejaVuSans-Oblique-69" transform="translate(149.091797 -51.787344) scale(0.49)"/>
    <use xlink:href="#DejaVuSans-Oblique-6a" transform="translate(162.705566 -51.787344) scale(0.49)"/>
    <use xlink:href="#DejaVuSans-2260" transform="translate(191.871094 -40.302969) scale(0.7)"/>
    <use xlink:href="#DejaVuSans-30" transform="translate(264.161133 -40.302969) scale(0.7)"/>
    <use xlink:href="#DejaVuSans-2c" transform="translate(308.697266 -40.302969) scale(0.7)"/>
    <use xlink:href="#DejaVuSans-Oblique-69" transform="translate(363.527333 -40.302969) scale(0.7)"/>
    <use xlink:href="#DejaVuSans-2260" transform="translate(396.61327 -40.302969) scale(0.7)"/>
    <use xlink:href="#DejaVuSans-Oblique-6a" transform="translate(468.903309 -40.302969) scale(0.7)"/>
    <use xlink:href="#DejaVuSans-7d" transform="translate(488.351551 -40.302969) scale(0.7)"/>
    <use xlink:href="#DejaVuSans-2e" transform="translate(545.387684 0.339219)"/>
    <path d="M 0 19.136094 
L 0 25.386094 
L 532.887684 25.386094 
L 532.887684 19.136094 
L 0 19.136094 
z
"/>
   </g>
  </g>
 </g>
</svg>
