<?xml version="1.0" encoding="utf-8" standalone="no"?>
<!DOCTYPE svg PUBLIC "-//W3C//DTD SVG 1.1//EN"
  "http://www.w3.org/Graphics/SVG/1.1/DTD/svg11.dtd">
<svg xmlns:xlink="http://www.w3.org/1999/xlink" width="65pt" height="34pt" viewBox="0 0 65 34" xmlns="http://www.w3.org/2000/svg" version="1.1">
 <metadata>
  <rdf:RDF xmlns:dc="http://purl.org/dc/elements/1.1/" xmlns:cc="http://creativecommons.org/ns#" xmlns:rdf="http://www.w3.org/1999/02/22-rdf-syntax-ns#">
   <cc:Work>
    <dc:type rdf:resource="http://purl.org/dc/dcmitype/StillImage"/>
    <dc:date>2026-03-18T11:54:57.458090</dc:date>
    <dc:format>image/svg+xml</dc:format>
    <dc:creator>
     <cc:Agent>
      <dc:title>Matplotlib v3.10.8, https://matplotlib.org/</dc:title>
     </cc:Agent>
    </dc:creator>
   </cc:Work>
  </rdf:RDF>
 </metadata>
 <defs>
  <style type="text/css">*{stroke-linejoin: round; stroke-linecap: butt}</style>
 </defs>
 <g id="figure_1">
  <g id="patch_1">
   <path d="M 0 34 
L 65 34 
L 65 0 
L 0 0 
z
" style="fill: #ffffff"/>
  </g>
  <g id="text_1">
   <!-- $\frac{|K-K^{T}|_F}{|K|_F + \varepsilon}.$ -->
   <g transform="translate(0 23) scale(0.18 -0.18)">
    <defs>
     <path id="DejaVuSans-7c" d="M 1344 4891 
L 1344 -1509 
L 813 -1509 
L 813 4891 
L 1344 4891 
z
" transform="scale(0.015625)"/>
     <path id="DejaVuSans-Oblique-4b" d="M 1081 4666 
L 1716 4666 
L 1331 2700 
L 3781 4666 
L 4622 4666 
L 1850 2438 
L 3878 0 
L 3109 0 
L 1247 2272 
L 806 0 
L 172 0 
L 1081 4666 
z
" transform="scale(0.015625)"/>
     <path id="DejaVuSans-2212" d="M 678 2272 
L 4684 2272 
L 4684 1741 
L 678 1741 
L 678 2272 
z
" transform="scale(0.015625)"/>
     <path id="DejaVuSans-Oblique-54" d="M 378 4666 
L 4325 4666 
L 4225 4134 
L 2559 4134 
L 1759 0 
L 1125 0 
L 1925 4134 
L 275 4134 
L 378 4666 
z
" transform="scale(0.015625)"/>
     <path id="DejaVuSans-Oblique-46" d="M 1081 4666 
L 3756 4666 
L 3653 4134 
L 1606 4134 
L 1338 2759 
L 3188 2759 
L 3084 2228 
L 1234 2228 
L 800 0 
L 172 0 
L 1081 4666 
z
" transform="scale(0.015625)"/>
     <path id="DejaVuSans-2b" d="M 2944 4013 
L 2944 2272 
L 4684 2272 
L 4684 1741 
L 2944 1741 
L 2944 0 
L 2419 0 
L 2419 1741 
L 678 1741 
L 678 2272 
L 2419 2272 
L 2419 4013 
L 2944 4013 
z
" transform="scale(0.015625)"/>
     <path id="DejaVuSans-Oblique-3b5" d="M 1263 1888 
Q 925 1963 778 2166 
Q 669 2309 669 2503 
Q 669 3034 1175 3344 
Q 1575 3588 2188 3588 
Q 2425 3588 2684 3550 
Q 2944 3513 3234 3438 
L 3134 2916 
Q 2847 3006 2606 3047 
Q 2359 3088 2138 3088 
Q 1766 3088 1522 2944 
Q 1228 2772 1228 2522 
Q 1228 2356 1381 2241 
Q 1563 2103 1925 2103 
L 2409 2103 
L 2319 1628 
L 1856 1628 
Q 1425 1628 1172 1469 
Q 828 1253 828 916 
Q 828 703 1013 563 
Q 1244 388 1716 388 
Q 2006 388 2284 444 
Q 2563 503 2806 619 
L 2700 84 
Q 2403 -3 2131 -47 
Q 1859 -91 1609 -91 
Q 866 -91 516 194 
Q 250 413 250 781 
Q 250 1278 600 1584 
Q 859 1813 1263 1888 
z
" transform="scale(0.015625)"/>
     <path id="DejaVuSans-2e" d="M 684 794 
L 1344 794 
L 1344 0 
L 684 0 
L 684 794 
z
" transform="scale(0.015625)"/>
    </defs>
    <use xlink:href="#DejaVuSans-7c" transform="translate(0 60.479063) scale(0.7)"/>
    <use xlink:href="#DejaVuSans-Oblique-4b" transform="translate(23.583984 60.479063) scale(0.7)"/>
    <use xlink:href="#DejaVuSans-2212" transform="translate(83.125 60.479063) scale(0.7)"/>
    <use xlink:href="#DejaVuSans-Oblique-4b" transform="translate(155.415039 60.479063) scale(0.7)"/>
    <use xlink:href="#DejaVuSans-Oblique-54" transform="translate(206.230099 87.275938) scale(0.49)"/>
    <use xlink:href="#DejaVuSans-7c" transform="translate(238.075314 60.479063) scale(0.7)"/>
    <use xlink:href="#DejaVuSans-Oblique-46" transform="translate(262.32922 48.994687) scale(0.49)"/>
    <use xlink:href="#DejaVuSans-7c" transform="translate(22 -40.770938) scale(0.7)"/>
    <use xlink:href="#DejaVuSans-Oblique-4b" transform="translate(45.583984 -40.770938) scale(0.7)"/>
    <use xlink:href="#DejaVuSans-7c" transform="translate(91.487305 -40.770938) scale(0.7)"/>
    <use xlink:href="#DejaVuSans-Oblique-46" transform="translate(115.741211 -52.255313) scale(0.49)"/>
    <use xlink:href="#DejaVuSans-2b" transform="translate(159.477539 -40.770938) scale(0.7)"/>
    <use xlink:href="#DejaVuSans-Oblique-3b5" transform="translate(231.767578 -40.770938) scale(0.7)"/>
    <use xlink:href="#DejaVuSans-2e" transform="translate(304.927853 0.1775)"/>
    <path d="M 0 18.974375 
L 0 25.224375 
L 292.427853 25.224375 
L 292.427853 18.974375 
L 0 18.974375 
z
"/>
   </g>
  </g>
 </g>
</svg>
